<svg id="svg" version="1.1" xmlns="http://www.w3.org/2000/svg" xmlns:xlink="http://www.w3.org/1999/xlink" width="400"
	 height="400" viewBox="0, 0, 400,400">
	<g id="svgg">
		<path id="path1"
			  d="M50.000 43.000 C 50.000 43.400,49.600 43.600,48.800 43.600 C 48.000 43.600,47.600 43.800,47.600 44.200 C 47.600 44.530,47.330 44.800,47.000 44.800 C 46.667 44.800,46.400 45.156,46.400 45.600 C 46.400 46.044,46.133 46.400,45.800 46.400 C 45.470 46.400,45.200 46.670,45.200 47.000 C 45.200 47.333,44.844 47.600,44.400 47.600 C 43.778 47.600,43.600 47.867,43.600 48.800 C 43.600 49.600,43.400 50.000,43.000 50.000 C 42.468 50.000,42.400 67.000,42.400 200.600 C 42.400 334.200,42.468 351.200,43.000 351.200 C 43.400 351.200,43.600 351.600,43.600 352.400 C 43.600 353.333,43.778 353.600,44.400 353.600 C 44.844 353.600,45.200 353.867,45.200 354.200 C 45.200 354.530,45.470 354.800,45.800 354.800 C 46.133 354.800,46.400 355.156,46.400 355.600 C 46.400 356.044,46.667 356.400,47.000 356.400 C 47.330 356.400,47.600 356.670,47.600 357.000 C 47.600 357.400,48.000 357.600,48.800 357.600 C 49.600 357.600,50.000 357.800,50.000 358.200 C 50.000 358.732,67.000 358.800,200.600 358.800 C 334.200 358.800,351.200 358.732,351.200 358.200 C 351.200 357.800,351.600 357.600,352.400 357.600 C 353.200 357.600,353.600 357.400,353.600 357.000 C 353.600 356.667,353.956 356.400,354.400 356.400 C 354.933 356.400,355.200 356.133,355.200 355.600 C 355.200 355.156,355.467 354.800,355.800 354.800 C 356.130 354.800,356.400 354.530,356.400 354.200 C 356.400 353.870,356.670 353.600,357.000 353.600 C 357.400 353.600,357.600 353.200,357.600 352.400 C 357.600 351.600,357.800 351.200,358.200 351.200 C 358.732 351.200,358.800 334.200,358.800 200.600 C 358.800 67.000,358.732 50.000,358.200 50.000 C 357.800 50.000,357.600 49.600,357.600 48.800 C 357.600 48.000,357.400 47.600,357.000 47.600 C 356.670 47.600,356.400 47.330,356.400 47.000 C 356.400 46.670,356.130 46.400,355.800 46.400 C 355.467 46.400,355.200 46.044,355.200 45.600 C 355.200 45.067,354.933 44.800,354.400 44.800 C 353.956 44.800,353.600 44.533,353.600 44.200 C 353.600 43.800,353.200 43.600,352.400 43.600 C 351.600 43.600,351.200 43.400,351.200 43.000 C 351.200 42.468,334.200 42.400,200.600 42.400 C 67.000 42.400,50.000 42.468,50.000 43.000 M331.200 59.400 C 331.200 59.800,331.600 60.000,332.400 60.000 C 333.200 60.000,333.600 60.200,333.600 60.600 C 333.600 61.019,334.022 61.200,335.000 61.200 C 335.978 61.200,336.400 61.381,336.400 61.800 C 336.400 62.130,336.670 62.400,337.000 62.400 C 337.330 62.400,337.600 62.670,337.600 63.000 C 337.600 63.330,337.870 63.600,338.200 63.600 C 338.530 63.600,338.800 63.870,338.800 64.200 C 338.800 64.530,339.070 64.800,339.400 64.800 C 339.819 64.800,340.000 65.222,340.000 66.200 C 340.000 67.178,340.181 67.600,340.600 67.600 C 341.000 67.600,341.200 68.000,341.200 68.800 C 341.200 69.600,341.400 70.000,341.800 70.000 C 342.332 70.000,342.400 84.778,342.400 200.600 C 342.400 316.422,342.332 331.200,341.800 331.200 C 341.400 331.200,341.200 331.600,341.200 332.400 C 341.200 333.200,341.000 333.600,340.600 333.600 C 340.181 333.600,340.000 334.022,340.000 335.000 C 340.000 335.978,339.819 336.400,339.400 336.400 C 339.070 336.400,338.800 336.670,338.800 337.000 C 338.800 337.330,338.530 337.600,338.200 337.600 C 337.870 337.600,337.600 337.870,337.600 338.200 C 337.600 338.530,337.330 338.800,337.000 338.800 C 336.670 338.800,336.400 339.070,336.400 339.400 C 336.400 339.819,335.978 340.000,335.000 340.000 C 334.022 340.000,333.600 340.181,333.600 340.600 C 333.600 341.000,333.200 341.200,332.400 341.200 C 331.600 341.200,331.200 341.400,331.200 341.800 C 331.200 342.332,316.422 342.400,200.600 342.400 C 84.778 342.400,70.000 342.332,70.000 341.800 C 70.000 341.400,69.600 341.200,68.800 341.200 C 68.000 341.200,67.600 341.000,67.600 340.600 C 67.600 340.200,67.200 340.000,66.400 340.000 C 65.600 340.000,65.200 339.800,65.200 339.400 C 65.200 339.067,64.844 338.800,64.400 338.800 C 63.956 338.800,63.600 338.533,63.600 338.200 C 63.600 337.870,63.330 337.600,63.000 337.600 C 62.670 337.600,62.400 337.330,62.400 337.000 C 62.400 336.670,62.130 336.400,61.800 336.400 C 61.381 336.400,61.200 335.978,61.200 335.000 C 61.200 334.022,61.019 333.600,60.600 333.600 C 60.200 333.600,60.000 333.200,60.000 332.400 C 60.000 331.600,59.800 331.200,59.400 331.200 C 58.868 331.200,58.800 316.422,58.800 200.600 C 58.800 84.778,58.868 70.000,59.400 70.000 C 59.800 70.000,60.000 69.600,60.000 68.800 C 60.000 68.000,60.200 67.600,60.600 67.600 C 61.019 67.600,61.200 67.178,61.200 66.200 C 61.200 65.222,61.381 64.800,61.800 64.800 C 62.130 64.800,62.400 64.530,62.400 64.200 C 62.400 63.870,62.670 63.600,63.000 63.600 C 63.330 63.600,63.600 63.330,63.600 63.000 C 63.600 62.667,63.956 62.400,64.400 62.400 C 64.844 62.400,65.200 62.133,65.200 61.800 C 65.200 61.400,65.600 61.200,66.400 61.200 C 67.200 61.200,67.600 61.000,67.600 60.600 C 67.600 60.200,68.000 60.000,68.800 60.000 C 69.600 60.000,70.000 59.800,70.000 59.400 C 70.000 58.868,84.778 58.800,200.600 58.800 C 316.422 58.800,331.200 58.868,331.200 59.400 "
			  stroke="none"  fill-rule="evenodd"></path>
	</g>
</svg>
