<svg id="svg" version="1.1" xmlns="http://www.w3.org/2000/svg" xmlns:xlink="http://www.w3.org/1999/xlink" width="400"
     height="400" viewBox="0, 0, 400,400">
    <g id="svgg">
        <path id="path0"
              d="M0.000 200.000 L 0.000 400.000 200.000 400.000 L 400.000 400.000 400.000 200.000 L 400.000 0.000 200.000 0.000 L 0.000 0.000 0.000 200.000 M353.600 35.600 C 353.600 36.293,353.867 36.400,355.600 36.400 C 357.111 36.400,357.600 36.547,357.600 37.000 C 357.600 37.400,358.000 37.600,358.800 37.600 C 359.600 37.600,360.000 37.800,360.000 38.200 C 360.000 38.530,360.270 38.800,360.600 38.800 C 360.930 38.800,361.200 39.070,361.200 39.400 C 361.200 39.730,361.470 40.000,361.800 40.000 C 362.130 40.000,362.400 40.270,362.400 40.600 C 362.400 40.930,362.670 41.200,363.000 41.200 C 363.400 41.200,363.600 41.600,363.600 42.400 C 363.600 43.333,363.778 43.600,364.400 43.600 C 365.093 43.600,365.200 43.867,365.200 45.600 C 365.200 47.111,365.347 47.600,365.800 47.600 C 366.332 47.600,366.400 64.867,366.400 200.600 C 366.400 336.333,366.332 353.600,365.800 353.600 C 365.347 353.600,365.200 354.089,365.200 355.600 C 365.200 357.333,365.093 357.600,364.400 357.600 C 363.778 357.600,363.600 357.867,363.600 358.800 C 363.600 359.600,363.400 360.000,363.000 360.000 C 362.670 360.000,362.400 360.270,362.400 360.600 C 362.400 360.930,362.130 361.200,361.800 361.200 C 361.470 361.200,361.200 361.470,361.200 361.800 C 361.200 362.130,360.930 362.400,360.600 362.400 C 360.270 362.400,360.000 362.670,360.000 363.000 C 360.000 363.400,359.600 363.600,358.800 363.600 C 358.000 363.600,357.600 363.800,357.600 364.200 C 357.600 364.653,357.111 364.800,355.600 364.800 C 353.867 364.800,353.600 364.907,353.600 365.600 C 353.600 366.399,353.333 366.400,200.600 366.400 C 47.867 366.400,47.600 366.399,47.600 365.600 C 47.600 364.907,47.333 364.800,45.600 364.800 C 44.089 364.800,43.600 364.653,43.600 364.200 C 43.600 363.800,43.200 363.600,42.400 363.600 C 41.600 363.600,41.200 363.400,41.200 363.000 C 41.200 362.670,40.930 362.400,40.600 362.400 C 40.270 362.400,40.000 362.130,40.000 361.800 C 40.000 361.470,39.730 361.200,39.400 361.200 C 39.070 361.200,38.800 360.930,38.800 360.600 C 38.800 360.270,38.530 360.000,38.200 360.000 C 37.800 360.000,37.600 359.600,37.600 358.800 C 37.600 358.000,37.400 357.600,37.000 357.600 C 36.547 357.600,36.400 357.111,36.400 355.600 C 36.400 354.089,36.253 353.600,35.800 353.600 C 35.268 353.600,35.200 336.333,35.200 200.600 C 35.200 64.867,35.268 47.600,35.800 47.600 C 36.253 47.600,36.400 47.111,36.400 45.600 C 36.400 44.089,36.547 43.600,37.000 43.600 C 37.400 43.600,37.600 43.200,37.600 42.400 C 37.600 41.600,37.800 41.200,38.200 41.200 C 38.530 41.200,38.800 40.930,38.800 40.600 C 38.800 40.270,39.070 40.000,39.400 40.000 C 39.730 40.000,40.000 39.730,40.000 39.400 C 40.000 39.070,40.270 38.800,40.600 38.800 C 40.930 38.800,41.200 38.530,41.200 38.200 C 41.200 37.800,41.600 37.600,42.400 37.600 C 43.200 37.600,43.600 37.400,43.600 37.000 C 43.600 36.547,44.089 36.400,45.600 36.400 C 47.333 36.400,47.600 36.293,47.600 35.600 C 47.600 34.801,47.867 34.800,200.600 34.800 C 353.333 34.800,353.600 34.801,353.600 35.600 M70.000 67.000 C 70.000 67.330,69.730 67.600,69.400 67.600 C 69.070 67.600,68.800 67.870,68.800 68.200 C 68.800 68.530,68.530 68.800,68.200 68.800 C 67.870 68.800,67.600 69.070,67.600 69.400 C 67.600 69.730,67.330 70.000,67.000 70.000 C 66.468 70.000,66.400 84.778,66.400 200.600 C 66.400 316.422,66.468 331.200,67.000 331.200 C 67.330 331.200,67.600 331.470,67.600 331.800 C 67.600 332.130,67.870 332.400,68.200 332.400 C 68.530 332.400,68.800 332.670,68.800 333.000 C 68.800 333.330,69.070 333.600,69.400 333.600 C 69.730 333.600,70.000 333.870,70.000 334.200 C 70.000 334.732,84.778 334.800,200.600 334.800 C 316.422 334.800,331.200 334.732,331.200 334.200 C 331.200 333.870,331.470 333.600,331.800 333.600 C 332.130 333.600,332.400 333.330,332.400 333.000 C 332.400 332.670,332.670 332.400,333.000 332.400 C 333.330 332.400,333.600 332.130,333.600 331.800 C 333.600 331.467,333.956 331.200,334.400 331.200 C 335.198 331.200,335.200 330.933,335.200 200.600 C 335.200 70.267,335.198 70.000,334.400 70.000 C 333.956 70.000,333.600 69.733,333.600 69.400 C 333.600 69.070,333.330 68.800,333.000 68.800 C 332.670 68.800,332.400 68.530,332.400 68.200 C 332.400 67.870,332.130 67.600,331.800 67.600 C 331.470 67.600,331.200 67.330,331.200 67.000 C 331.200 66.468,316.422 66.400,200.600 66.400 C 84.778 66.400,70.000 66.468,70.000 67.000 "
              stroke="none" fill="#fcfcfc" fill-rule="evenodd"></path>
        <path id="path1"
              d="M50.000 43.000 C 50.000 43.400,49.600 43.600,48.800 43.600 C 48.000 43.600,47.600 43.800,47.600 44.200 C 47.600 44.530,47.330 44.800,47.000 44.800 C 46.667 44.800,46.400 45.156,46.400 45.600 C 46.400 46.044,46.133 46.400,45.800 46.400 C 45.470 46.400,45.200 46.670,45.200 47.000 C 45.200 47.333,44.844 47.600,44.400 47.600 C 43.778 47.600,43.600 47.867,43.600 48.800 C 43.600 49.600,43.400 50.000,43.000 50.000 C 42.468 50.000,42.400 67.000,42.400 200.600 C 42.400 334.200,42.468 351.200,43.000 351.200 C 43.400 351.200,43.600 351.600,43.600 352.400 C 43.600 353.333,43.778 353.600,44.400 353.600 C 44.844 353.600,45.200 353.867,45.200 354.200 C 45.200 354.530,45.470 354.800,45.800 354.800 C 46.133 354.800,46.400 355.156,46.400 355.600 C 46.400 356.044,46.667 356.400,47.000 356.400 C 47.330 356.400,47.600 356.670,47.600 357.000 C 47.600 357.400,48.000 357.600,48.800 357.600 C 49.600 357.600,50.000 357.800,50.000 358.200 C 50.000 358.732,67.000 358.800,200.600 358.800 C 334.200 358.800,351.200 358.732,351.200 358.200 C 351.200 357.800,351.600 357.600,352.400 357.600 C 353.200 357.600,353.600 357.400,353.600 357.000 C 353.600 356.667,353.956 356.400,354.400 356.400 C 354.933 356.400,355.200 356.133,355.200 355.600 C 355.200 355.156,355.467 354.800,355.800 354.800 C 356.130 354.800,356.400 354.530,356.400 354.200 C 356.400 353.870,356.670 353.600,357.000 353.600 C 357.400 353.600,357.600 353.200,357.600 352.400 C 357.600 351.600,357.800 351.200,358.200 351.200 C 358.732 351.200,358.800 334.200,358.800 200.600 C 358.800 67.000,358.732 50.000,358.200 50.000 C 357.800 50.000,357.600 49.600,357.600 48.800 C 357.600 48.000,357.400 47.600,357.000 47.600 C 356.670 47.600,356.400 47.330,356.400 47.000 C 356.400 46.670,356.130 46.400,355.800 46.400 C 355.467 46.400,355.200 46.044,355.200 45.600 C 355.200 45.067,354.933 44.800,354.400 44.800 C 353.956 44.800,353.600 44.533,353.600 44.200 C 353.600 43.800,353.200 43.600,352.400 43.600 C 351.600 43.600,351.200 43.400,351.200 43.000 C 351.200 42.468,334.200 42.400,200.600 42.400 C 67.000 42.400,50.000 42.468,50.000 43.000 M331.200 59.400 C 331.200 59.800,331.600 60.000,332.400 60.000 C 333.200 60.000,333.600 60.200,333.600 60.600 C 333.600 61.019,334.022 61.200,335.000 61.200 C 335.978 61.200,336.400 61.381,336.400 61.800 C 336.400 62.130,336.670 62.400,337.000 62.400 C 337.330 62.400,337.600 62.670,337.600 63.000 C 337.600 63.330,337.870 63.600,338.200 63.600 C 338.530 63.600,338.800 63.870,338.800 64.200 C 338.800 64.530,339.070 64.800,339.400 64.800 C 339.819 64.800,340.000 65.222,340.000 66.200 C 340.000 67.178,340.181 67.600,340.600 67.600 C 341.000 67.600,341.200 68.000,341.200 68.800 C 341.200 69.600,341.400 70.000,341.800 70.000 C 342.332 70.000,342.400 84.778,342.400 200.600 C 342.400 316.422,342.332 331.200,341.800 331.200 C 341.400 331.200,341.200 331.600,341.200 332.400 C 341.200 333.200,341.000 333.600,340.600 333.600 C 340.181 333.600,340.000 334.022,340.000 335.000 C 340.000 335.978,339.819 336.400,339.400 336.400 C 339.070 336.400,338.800 336.670,338.800 337.000 C 338.800 337.330,338.530 337.600,338.200 337.600 C 337.870 337.600,337.600 337.870,337.600 338.200 C 337.600 338.530,337.330 338.800,337.000 338.800 C 336.670 338.800,336.400 339.070,336.400 339.400 C 336.400 339.819,335.978 340.000,335.000 340.000 C 334.022 340.000,333.600 340.181,333.600 340.600 C 333.600 341.000,333.200 341.200,332.400 341.200 C 331.600 341.200,331.200 341.400,331.200 341.800 C 331.200 342.332,316.422 342.400,200.600 342.400 C 84.778 342.400,70.000 342.332,70.000 341.800 C 70.000 341.400,69.600 341.200,68.800 341.200 C 68.000 341.200,67.600 341.000,67.600 340.600 C 67.600 340.200,67.200 340.000,66.400 340.000 C 65.600 340.000,65.200 339.800,65.200 339.400 C 65.200 339.067,64.844 338.800,64.400 338.800 C 63.956 338.800,63.600 338.533,63.600 338.200 C 63.600 337.870,63.330 337.600,63.000 337.600 C 62.670 337.600,62.400 337.330,62.400 337.000 C 62.400 336.670,62.130 336.400,61.800 336.400 C 61.381 336.400,61.200 335.978,61.200 335.000 C 61.200 334.022,61.019 333.600,60.600 333.600 C 60.200 333.600,60.000 333.200,60.000 332.400 C 60.000 331.600,59.800 331.200,59.400 331.200 C 58.868 331.200,58.800 316.422,58.800 200.600 C 58.800 84.778,58.868 70.000,59.400 70.000 C 59.800 70.000,60.000 69.600,60.000 68.800 C 60.000 68.000,60.200 67.600,60.600 67.600 C 61.019 67.600,61.200 67.178,61.200 66.200 C 61.200 65.222,61.381 64.800,61.800 64.800 C 62.130 64.800,62.400 64.530,62.400 64.200 C 62.400 63.870,62.670 63.600,63.000 63.600 C 63.330 63.600,63.600 63.330,63.600 63.000 C 63.600 62.667,63.956 62.400,64.400 62.400 C 64.844 62.400,65.200 62.133,65.200 61.800 C 65.200 61.400,65.600 61.200,66.400 61.200 C 67.200 61.200,67.600 61.000,67.600 60.600 C 67.600 60.200,68.000 60.000,68.800 60.000 C 69.600 60.000,70.000 59.800,70.000 59.400 C 70.000 58.868,84.778 58.800,200.600 58.800 C 316.422 58.800,331.200 58.868,331.200 59.400 "
              stroke="none" fill="#2c1c0c" fill-rule="evenodd"></path>
        <path id="path2" d="" stroke="none" fill="#94100c0" fill-rule="evenodd"></path>
        <path id="path3" d="" stroke="none" fill="#94100c0" fill-rule="evenodd"></path>
        <path id="path4" d="" stroke="none" fill="#94100c0" fill-rule="evenodd"></path>
    </g>
</svg>
