<svg id="svg" version="1.1" xmlns="http://www.w3.org/2000/svg" xmlns:xlink="http://www.w3.org/1999/xlink" width="400"
	 height="400" viewBox="0, 0, 400,400">
	<g id="svgg">
		<path id="path1"
			  d="M50.000 43.000 C 50.000 43.400,49.600 43.600,48.800 43.600 C 48.000 43.600,47.600 43.800,47.600 44.200 C 47.600 44.530,47.330 44.800,47.000 44.800 C 46.667 44.800,46.400 45.156,46.400 45.600 C 46.400 46.044,46.133 46.400,45.800 46.400 C 45.470 46.400,45.200 46.670,45.200 47.000 C 45.200 47.333,44.844 47.600,44.400 47.600 C 43.778 47.600,43.600 47.867,43.600 48.800 C 43.600 49.600,43.400 50.000,43.000 50.000 C 42.670 50.000,42.400 50.270,42.400 50.600 C 42.400 50.930,42.670 51.200,43.000 51.200 C 43.400 51.200,43.600 51.600,43.600 52.400 C 43.600 53.333,43.778 53.600,44.400 53.600 C 44.844 53.600,45.200 53.867,45.200 54.200 C 45.200 54.530,45.470 54.800,45.800 54.800 C 46.133 54.800,46.400 55.156,46.400 55.600 C 46.400 56.044,46.667 56.400,47.000 56.400 C 47.330 56.400,47.600 56.670,47.600 57.000 C 47.600 57.400,48.000 57.600,48.800 57.600 C 49.600 57.600,50.000 57.800,50.000 58.200 C 50.000 58.732,67.000 58.800,200.600 58.800 C 334.200 58.800,351.200 58.732,351.200 58.200 C 351.200 57.800,351.600 57.600,352.400 57.600 C 353.200 57.600,353.600 57.400,353.600 57.000 C 353.600 56.667,353.956 56.400,354.400 56.400 C 354.933 56.400,355.200 56.133,355.200 55.600 C 355.200 55.156,355.467 54.800,355.800 54.800 C 356.130 54.800,356.400 54.530,356.400 54.200 C 356.400 53.870,356.670 53.600,357.000 53.600 C 357.400 53.600,357.600 53.200,357.600 52.400 C 357.600 51.600,357.800 51.200,358.200 51.200 C 358.530 51.200,358.800 50.930,358.800 50.600 C 358.800 50.270,358.530 50.000,358.200 50.000 C 357.800 50.000,357.600 49.600,357.600 48.800 C 357.600 48.000,357.400 47.600,357.000 47.600 C 356.670 47.600,356.400 47.330,356.400 47.000 C 356.400 46.670,356.130 46.400,355.800 46.400 C 355.467 46.400,355.200 46.044,355.200 45.600 C 355.200 45.067,354.933 44.800,354.400 44.800 C 353.956 44.800,353.600 44.533,353.600 44.200 C 353.600 43.800,353.200 43.600,352.400 43.600 C 351.600 43.600,351.200 43.400,351.200 43.000 C 351.200 42.468,334.200 42.400,200.600 42.400 C 67.000 42.400,50.000 42.468,50.000 43.000 "
			  stroke="none" fill="#2c1c0c" fill-rule="evenodd"></path>
	</g>
</svg>
