<svg id="svg" version="1.1" xmlns="http://www.w3.org/2000/svg" xmlns:xlink="http://www.w3.org/1999/xlink" width="400"
	 height="400" viewBox="0, 0, 400,400">
	<g id="svgg">
		<path id="path1"
			  d="M50.000 343.000 C 50.000 343.400,49.600 343.600,48.800 343.600 C 48.000 343.600,47.600 343.800,47.600 344.200 C 47.600 344.530,47.330 344.800,47.000 344.800 C 46.667 344.800,46.400 345.156,46.400 345.600 C 46.400 346.044,46.133 346.400,45.800 346.400 C 45.470 346.400,45.200 346.670,45.200 347.000 C 45.200 347.333,44.844 347.600,44.400 347.600 C 43.778 347.600,43.600 347.867,43.600 348.800 C 43.600 349.600,43.400 350.000,43.000 350.000 C 42.670 350.000,42.400 350.270,42.400 350.600 C 42.400 350.930,42.670 351.200,43.000 351.200 C 43.400 351.200,43.600 351.600,43.600 352.400 C 43.600 353.333,43.778 353.600,44.400 353.600 C 44.844 353.600,45.200 353.867,45.200 354.200 C 45.200 354.530,45.470 354.800,45.800 354.800 C 46.133 354.800,46.400 355.156,46.400 355.600 C 46.400 356.044,46.667 356.400,47.000 356.400 C 47.330 356.400,47.600 356.670,47.600 357.000 C 47.600 357.400,48.000 357.600,48.800 357.600 C 49.600 357.600,50.000 357.800,50.000 358.200 C 50.000 358.732,67.000 358.800,200.600 358.800 C 334.200 358.800,351.200 358.732,351.200 358.200 C 351.200 357.800,351.600 357.600,352.400 357.600 C 353.200 357.600,353.600 357.400,353.600 357.000 C 353.600 356.667,353.956 356.400,354.400 356.400 C 354.933 356.400,355.200 356.133,355.200 355.600 C 355.200 355.156,355.467 354.800,355.800 354.800 C 356.130 354.800,356.400 354.530,356.400 354.200 C 356.400 353.870,356.670 353.600,357.000 353.600 C 357.400 353.600,357.600 353.200,357.600 352.400 C 357.600 351.600,357.800 351.200,358.200 351.200 C 358.530 351.200,358.800 350.930,358.800 350.600 C 358.800 350.270,358.530 350.000,358.200 350.000 C 357.800 350.000,357.600 349.600,357.600 348.800 C 357.600 348.000,357.400 347.600,357.000 347.600 C 356.670 347.600,356.400 347.330,356.400 347.000 C 356.400 346.670,356.130 346.400,355.800 346.400 C 355.467 346.400,355.200 346.044,355.200 345.600 C 355.200 345.067,354.933 344.800,354.400 344.800 C 353.956 344.800,353.600 344.533,353.600 344.200 C 353.600 343.800,353.200 343.600,352.400 343.600 C 351.600 343.600,351.200 343.400,351.200 343.000 C 351.200 342.468,334.200 342.400,200.600 342.400 C 67.000 342.400,50.000 342.468,50.000 343.000 "
			  stroke="none" fill="#2c1c0c" fill-rule="evenodd"></path>
	</g>
</svg>
